<?xml version="1.0" encoding="UTF-8"?>
<!-- Generator: visioncortex VTracer 0.6.4 -->
<svg version="1.1" xmlns="http://www.w3.org/2000/svg" width="128" height="128">
<path d="M0 0 C5.28 0 10.56 0 16 0 C16 0.66 16 1.32 16 2 C17.32 2 18.64 2 20 2 C20 2.66 20 3.32 20 4 C21.32 4 22.64 4 24 4 C24 4.66 24 5.32 24 6 C25.32 6 26.64 6 28 6 C28 6.66 28 7.32 28 8 C29.32 8 30.64 8 32 8 C32 8.66 32 9.32 32 10 C34.64 10 37.28 10 40 10 C40 10.66 40 11.32 40 12 C43.96 12 47.92 12 52 12 C52 12.66 52 13.32 52 14 C53.32 14 54.64 14 56 14 C56 14.66 56 15.32 56 16 C56.66 16 57.32 16 58 16 C58 17.32 58 18.64 58 20 C58.66 20 59.32 20 60 20 C60 29.9 60 39.8 60 50 C59.34 50 58.68 50 58 50 C58 53.3 58 56.6 58 60 C57.34 60 56.68 60 56 60 C56 61.32 56 62.64 56 64 C55.34 64 54.68 64 54 64 C54 65.98 54 67.96 54 70 C53.34 70 52.68 70 52 70 C52 70.66 52 71.32 52 72 C51.34 72 50.68 72 50 72 C50 73.32 50 74.64 50 76 C49.34 76 48.68 76 48 76 C48 77.32 48 78.64 48 80 C47.34 80 46.68 80 46 80 C46 80.66 46 81.32 46 82 C45.34 82 44.68 82 44 82 C44 82.66 44 83.32 44 84 C43.34 84 42.68 84 42 84 C42 84.66 42 85.32 42 86 C41.34 86 40.68 86 40 86 C40 86.66 40 87.32 40 88 C39.34 88 38.68 88 38 88 C38 88.66 38 89.32 38 90 C37.34 90 36.68 90 36 90 C36 90.66 36 91.32 36 92 C35.34 92 34.68 92 34 92 C34 92.66 34 93.32 34 94 C33.34 94 32.68 94 32 94 C32 94.66 32 95.32 32 96 C31.34 96 30.68 96 30 96 C30 96.66 30 97.32 30 98 C29.34 98 28.68 98 28 98 C28 98.66 28 99.32 28 100 C27.34 100 26.68 100 26 100 C26 100.66 26 101.32 26 102 C25.34 102 24.68 102 24 102 C24 102.66 24 103.32 24 104 C23.34 104 22.68 104 22 104 C22 104.66 22 105.32 22 106 C21.34 106 20.68 106 20 106 C20 106.66 20 107.32 20 108 C19.34 108 18.68 108 18 108 C18 108.66 18 109.32 18 110 C16.68 110 15.36 110 14 110 C14 110.66 14 111.32 14 112 C10.04 112 6.08 112 2 112 C2 111.34 2 110.68 2 110 C0.68 110 -0.64 110 -2 110 C-2 109.34 -2 108.68 -2 108 C-2.66 108 -3.32 108 -4 108 C-4 107.34 -4 106.68 -4 106 C-4.66 106 -5.32 106 -6 106 C-6 105.34 -6 104.68 -6 104 C-6.66 104 -7.32 104 -8 104 C-8 103.34 -8 102.68 -8 102 C-8.66 102 -9.32 102 -10 102 C-10 101.34 -10 100.68 -10 100 C-10.66 100 -11.32 100 -12 100 C-12 99.34 -12 98.68 -12 98 C-12.66 98 -13.32 98 -14 98 C-14 97.34 -14 96.68 -14 96 C-14.66 96 -15.32 96 -16 96 C-16 95.34 -16 94.68 -16 94 C-16.66 94 -17.32 94 -18 94 C-18 93.34 -18 92.68 -18 92 C-18.66 92 -19.32 92 -20 92 C-20 91.34 -20 90.68 -20 90 C-20.66 90 -21.32 90 -22 90 C-22 89.34 -22 88.68 -22 88 C-22.66 88 -23.32 88 -24 88 C-24 87.34 -24 86.68 -24 86 C-24.66 86 -25.32 86 -26 86 C-26 85.34 -26 84.68 -26 84 C-26.66 84 -27.32 84 -28 84 C-28 83.34 -28 82.68 -28 82 C-28.66 82 -29.32 82 -30 82 C-30 81.34 -30 80.68 -30 80 C-30.66 80 -31.32 80 -32 80 C-32 78.68 -32 77.36 -32 76 C-32.66 76 -33.32 76 -34 76 C-34 74.68 -34 73.36 -34 72 C-34.66 72 -35.32 72 -36 72 C-36 71.34 -36 70.68 -36 70 C-36.66 70 -37.32 70 -38 70 C-38 68.02 -38 66.04 -38 64 C-38.66 64 -39.32 64 -40 64 C-40 62.68 -40 61.36 -40 60 C-40.66 60 -41.32 60 -42 60 C-42 56.7 -42 53.4 -42 50 C-42.66 50 -43.32 50 -44 50 C-44 40.1 -44 30.2 -44 20 C-43.34 20 -42.68 20 -42 20 C-42 18.68 -42 17.36 -42 16 C-41.34 16 -40.68 16 -40 16 C-40 15.34 -40 14.68 -40 14 C-38.68 14 -37.36 14 -36 14 C-36 13.34 -36 12.68 -36 12 C-32.04 12 -28.08 12 -24 12 C-24 11.34 -24 10.68 -24 10 C-21.36 10 -18.72 10 -16 10 C-16 9.34 -16 8.68 -16 8 C-14.68 8 -13.36 8 -12 8 C-12 7.34 -12 6.68 -12 6 C-10.68 6 -9.36 6 -8 6 C-8 5.34 -8 4.68 -8 4 C-6.68 4 -5.36 4 -4 4 C-4 3.34 -4 2.68 -4 2 C-2.68 2 -1.36 2 0 2 C0 1.34 0 0.68 0 0 Z M6 14 C6 14.66 6 15.32 6 16 C4.68 16 3.36 16 2 16 C2 16.66 2 17.32 2 18 C0.68 18 -0.64 18 -2 18 C-2 18.66 -2 19.32 -2 20 C-3.32 20 -4.64 20 -6 20 C-6 20.66 -6 21.32 -6 22 C-7.32 22 -8.64 22 -10 22 C-10 22.66 -10 23.32 -10 24 C-12.64 24 -15.28 24 -18 24 C-18 24.66 -18 25.32 -18 26 C-21.96 26 -25.92 26 -30 26 C-30 32.6 -30 39.2 -30 46 C-29.34 46 -28.68 46 -28 46 C-28 48.64 -28 51.28 -28 54 C-27.34 54 -26.68 54 -26 54 C-26 55.32 -26 56.64 -26 58 C-25.34 58 -24.68 58 -24 58 C-24 59.32 -24 60.64 -24 62 C-23.34 62 -22.68 62 -22 62 C-22 63.32 -22 64.64 -22 66 C-21.34 66 -20.68 66 -20 66 C-20 67.32 -20 68.64 -20 70 C-19.34 70 -18.68 70 -18 70 C-18 70.66 -18 71.32 -18 72 C-17.34 72 -16.68 72 -16 72 C-16 72.66 -16 73.32 -16 74 C-15.34 74 -14.68 74 -14 74 C-14 74.66 -14 75.32 -14 76 C-13.34 76 -12.68 76 -12 76 C-12 76.66 -12 77.32 -12 78 C-11.34 78 -10.68 78 -10 78 C-10 78.66 -10 79.32 -10 80 C-9.34 80 -8.68 80 -8 80 C-8 80.66 -8 81.32 -8 82 C-7.34 82 -6.68 82 -6 82 C-6 82.66 -6 83.32 -6 84 C-5.34 84 -4.68 84 -4 84 C-4 84.66 -4 85.32 -4 86 C-3.34 86 -2.68 86 -2 86 C-2 86.66 -2 87.32 -2 88 C-1.34 88 -0.68 88 0 88 C0 88.66 0 89.32 0 90 C0.66 90 1.32 90 2 90 C2 90.66 2 91.32 2 92 C2.66 92 3.32 92 4 92 C4 92.66 4 93.32 4 94 C4.66 94 5.32 94 6 94 C6 94.66 6 95.32 6 96 C7.32 96 8.64 96 10 96 C10 95.34 10 94.68 10 94 C10.66 94 11.32 94 12 94 C12 93.34 12 92.68 12 92 C12.66 92 13.32 92 14 92 C14 91.34 14 90.68 14 90 C14.66 90 15.32 90 16 90 C16 89.34 16 88.68 16 88 C16.66 88 17.32 88 18 88 C18 87.34 18 86.68 18 86 C18.66 86 19.32 86 20 86 C20 85.34 20 84.68 20 84 C20.66 84 21.32 84 22 84 C22 83.34 22 82.68 22 82 C22.66 82 23.32 82 24 82 C24 81.34 24 80.68 24 80 C24.66 80 25.32 80 26 80 C26 79.34 26 78.68 26 78 C26.66 78 27.32 78 28 78 C28 77.34 28 76.68 28 76 C28.66 76 29.32 76 30 76 C30 75.34 30 74.68 30 74 C30.66 74 31.32 74 32 74 C32 73.34 32 72.68 32 72 C32.66 72 33.32 72 34 72 C34 71.34 34 70.68 34 70 C34.66 70 35.32 70 36 70 C36 68.68 36 67.36 36 66 C36.66 66 37.32 66 38 66 C38 64.68 38 63.36 38 62 C38.66 62 39.32 62 40 62 C40 60.68 40 59.36 40 58 C40.66 58 41.32 58 42 58 C42 56.68 42 55.36 42 54 C42.66 54 43.32 54 44 54 C44 51.36 44 48.72 44 46 C44.66 46 45.32 46 46 46 C46 39.4 46 32.8 46 26 C42.04 26 38.08 26 34 26 C34 25.34 34 24.68 34 24 C31.36 24 28.72 24 26 24 C26 23.34 26 22.68 26 22 C24.68 22 23.36 22 22 22 C22 21.34 22 20.68 22 20 C20.68 20 19.36 20 18 20 C18 19.34 18 18.68 18 18 C16.68 18 15.36 18 14 18 C14 17.34 14 16.68 14 16 C12.68 16 11.36 16 10 16 C10 15.34 10 14.68 10 14 C8.68 14 7.36 14 6 14 Z " fill="#699FFF" transform="translate(56,8)"/>
<path d="M0 0 C5.28 0 10.56 0 16 0 C16 0.66 16 1.32 16 2 C17.32 2 18.64 2 20 2 C20 2.66 20 3.32 20 4 C21.32 4 22.64 4 24 4 C24 4.66 24 5.32 24 6 C25.32 6 26.64 6 28 6 C28 6.66 28 7.32 28 8 C29.32 8 30.64 8 32 8 C32 8.66 32 9.32 32 10 C34.64 10 37.28 10 40 10 C40 10.66 40 11.32 40 12 C43.96 12 47.92 12 52 12 C52 12.66 52 13.32 52 14 C53.32 14 54.64 14 56 14 C56 14.66 56 15.32 56 16 C56.66 16 57.32 16 58 16 C58 17.32 58 18.64 58 20 C58.66 20 59.32 20 60 20 C60 29.9 60 39.8 60 50 C59.34 50 58.68 50 58 50 C58 53.3 58 56.6 58 60 C57.34 60 56.68 60 56 60 C56 61.32 56 62.64 56 64 C55.34 64 54.68 64 54 64 C54 65.98 54 67.96 54 70 C53.34 70 52.68 70 52 70 C52 70.66 52 71.32 52 72 C51.34 72 50.68 72 50 72 C50 73.32 50 74.64 50 76 C49.34 76 48.68 76 48 76 C48 77.32 48 78.64 48 80 C47.34 80 46.68 80 46 80 C46 80.66 46 81.32 46 82 C45.34 82 44.68 82 44 82 C44 82.66 44 83.32 44 84 C43.34 84 42.68 84 42 84 C42 84.66 42 85.32 42 86 C41.34 86 40.68 86 40 86 C40 86.66 40 87.32 40 88 C39.34 88 38.68 88 38 88 C38 88.66 38 89.32 38 90 C37.34 90 36.68 90 36 90 C36 90.66 36 91.32 36 92 C35.34 92 34.68 92 34 92 C34 92.66 34 93.32 34 94 C33.34 94 32.68 94 32 94 C32 94.66 32 95.32 32 96 C31.34 96 30.68 96 30 96 C30 96.66 30 97.32 30 98 C29.34 98 28.68 98 28 98 C28 98.66 28 99.32 28 100 C27.34 100 26.68 100 26 100 C26 100.66 26 101.32 26 102 C25.34 102 24.68 102 24 102 C24 102.66 24 103.32 24 104 C23.34 104 22.68 104 22 104 C22 104.66 22 105.32 22 106 C21.34 106 20.68 106 20 106 C20 106.66 20 107.32 20 108 C19.34 108 18.68 108 18 108 C18 108.66 18 109.32 18 110 C16.68 110 15.36 110 14 110 C14 110.66 14 111.32 14 112 C10.04 112 6.08 112 2 112 C2 111.34 2 110.68 2 110 C0.68 110 -0.64 110 -2 110 C-2 109.34 -2 108.68 -2 108 C-2.66 108 -3.32 108 -4 108 C-4 107.34 -4 106.68 -4 106 C-4.66 106 -5.32 106 -6 106 C-6 105.34 -6 104.68 -6 104 C-6.66 104 -7.32 104 -8 104 C-8 103.34 -8 102.68 -8 102 C-8.66 102 -9.32 102 -10 102 C-10 101.34 -10 100.68 -10 100 C-10.66 100 -11.32 100 -12 100 C-12 99.34 -12 98.68 -12 98 C-12.66 98 -13.32 98 -14 98 C-14 97.34 -14 96.68 -14 96 C-14.66 96 -15.32 96 -16 96 C-16 95.34 -16 94.68 -16 94 C-16.66 94 -17.32 94 -18 94 C-18 93.34 -18 92.68 -18 92 C-18.66 92 -19.32 92 -20 92 C-20 91.34 -20 90.68 -20 90 C-20.66 90 -21.32 90 -22 90 C-22 89.34 -22 88.68 -22 88 C-22.66 88 -23.32 88 -24 88 C-24 87.34 -24 86.68 -24 86 C-24.66 86 -25.32 86 -26 86 C-26 85.34 -26 84.68 -26 84 C-26.66 84 -27.32 84 -28 84 C-28 83.34 -28 82.68 -28 82 C-28.66 82 -29.32 82 -30 82 C-30 81.34 -30 80.68 -30 80 C-30.66 80 -31.32 80 -32 80 C-32 78.68 -32 77.36 -32 76 C-32.66 76 -33.32 76 -34 76 C-34 74.68 -34 73.36 -34 72 C-34.66 72 -35.32 72 -36 72 C-36 71.34 -36 70.68 -36 70 C-36.66 70 -37.32 70 -38 70 C-38 68.02 -38 66.04 -38 64 C-38.66 64 -39.32 64 -40 64 C-40 62.68 -40 61.36 -40 60 C-40.66 60 -41.32 60 -42 60 C-42 56.7 -42 53.4 -42 50 C-42.66 50 -43.32 50 -44 50 C-44 40.1 -44 30.2 -44 20 C-43.34 20 -42.68 20 -42 20 C-42 18.68 -42 17.36 -42 16 C-41.34 16 -40.68 16 -40 16 C-40 15.34 -40 14.68 -40 14 C-38.68 14 -37.36 14 -36 14 C-36 13.34 -36 12.68 -36 12 C-32.04 12 -28.08 12 -24 12 C-24 11.34 -24 10.68 -24 10 C-21.36 10 -18.72 10 -16 10 C-16 9.34 -16 8.68 -16 8 C-14.68 8 -13.36 8 -12 8 C-12 7.34 -12 6.68 -12 6 C-10.68 6 -9.36 6 -8 6 C-8 5.34 -8 4.68 -8 4 C-6.68 4 -5.36 4 -4 4 C-4 3.34 -4 2.68 -4 2 C-2.68 2 -1.36 2 0 2 C0 1.34 0 0.68 0 0 Z M2 2 C2 2.66 2 3.32 2 4 C0.68 4 -0.64 4 -2 4 C-2 4.66 -2 5.32 -2 6 C-3.32 6 -4.64 6 -6 6 C-6 6.66 -6 7.32 -6 8 C-7.32 8 -8.64 8 -10 8 C-10 8.66 -10 9.32 -10 10 C-11.32 10 -12.64 10 -14 10 C-14 10.66 -14 11.32 -14 12 C-16.64 12 -19.28 12 -22 12 C-22 12.66 -22 13.32 -22 14 C-25.96 14 -29.92 14 -34 14 C-34 14.66 -34 15.32 -34 16 C-35.32 16 -36.64 16 -38 16 C-38 16.66 -38 17.32 -38 18 C-38.66 18 -39.32 18 -40 18 C-40 19.32 -40 20.64 -40 22 C-40.66 22 -41.32 22 -42 22 C-42 30.58 -42 39.16 -42 48 C-41.34 48 -40.68 48 -40 48 C-40 51.3 -40 54.6 -40 58 C-39.34 58 -38.68 58 -38 58 C-38 59.32 -38 60.64 -38 62 C-37.34 62 -36.68 62 -36 62 C-36 63.98 -36 65.96 -36 68 C-35.34 68 -34.68 68 -34 68 C-34 68.66 -34 69.32 -34 70 C-33.34 70 -32.68 70 -32 70 C-32 71.32 -32 72.64 -32 74 C-31.34 74 -30.68 74 -30 74 C-30 75.32 -30 76.64 -30 78 C-29.34 78 -28.68 78 -28 78 C-28 78.66 -28 79.32 -28 80 C-27.34 80 -26.68 80 -26 80 C-26 80.66 -26 81.32 -26 82 C-25.34 82 -24.68 82 -24 82 C-24 82.66 -24 83.32 -24 84 C-23.34 84 -22.68 84 -22 84 C-22 84.66 -22 85.32 -22 86 C-21.34 86 -20.68 86 -20 86 C-20 86.66 -20 87.32 -20 88 C-19.34 88 -18.68 88 -18 88 C-18 88.66 -18 89.32 -18 90 C-17.34 90 -16.68 90 -16 90 C-16 90.66 -16 91.32 -16 92 C-15.34 92 -14.68 92 -14 92 C-14 92.66 -14 93.32 -14 94 C-13.34 94 -12.68 94 -12 94 C-12 94.66 -12 95.32 -12 96 C-11.34 96 -10.68 96 -10 96 C-10 96.66 -10 97.32 -10 98 C-9.34 98 -8.68 98 -8 98 C-8 98.66 -8 99.32 -8 100 C-7.34 100 -6.68 100 -6 100 C-6 100.66 -6 101.32 -6 102 C-5.34 102 -4.68 102 -4 102 C-4 102.66 -4 103.32 -4 104 C-3.34 104 -2.68 104 -2 104 C-2 104.66 -2 105.32 -2 106 C-1.34 106 -0.68 106 0 106 C0 106.66 0 107.32 0 108 C1.32 108 2.64 108 4 108 C4 108.66 4 109.32 4 110 C6.64 110 9.28 110 12 110 C12 109.34 12 108.68 12 108 C13.32 108 14.64 108 16 108 C16 107.34 16 106.68 16 106 C16.66 106 17.32 106 18 106 C18 105.34 18 104.68 18 104 C18.66 104 19.32 104 20 104 C20 103.34 20 102.68 20 102 C20.66 102 21.32 102 22 102 C22 101.34 22 100.68 22 100 C22.66 100 23.32 100 24 100 C24 99.34 24 98.68 24 98 C24.66 98 25.32 98 26 98 C26 97.34 26 96.68 26 96 C26.66 96 27.32 96 28 96 C28 95.34 28 94.68 28 94 C28.66 94 29.32 94 30 94 C30 93.34 30 92.68 30 92 C30.66 92 31.32 92 32 92 C32 91.34 32 90.68 32 90 C32.66 90 33.32 90 34 90 C34 89.34 34 88.68 34 88 C34.66 88 35.32 88 36 88 C36 87.34 36 86.68 36 86 C36.66 86 37.32 86 38 86 C38 85.34 38 84.68 38 84 C38.66 84 39.32 84 40 84 C40 83.34 40 82.68 40 82 C40.66 82 41.32 82 42 82 C42 81.34 42 80.68 42 80 C42.66 80 43.32 80 44 80 C44 79.34 44 78.68 44 78 C44.66 78 45.32 78 46 78 C46 76.68 46 75.36 46 74 C46.66 74 47.32 74 48 74 C48 72.68 48 71.36 48 70 C48.66 70 49.32 70 50 70 C50 69.34 50 68.68 50 68 C50.66 68 51.32 68 52 68 C52 66.02 52 64.04 52 62 C52.66 62 53.32 62 54 62 C54 60.68 54 59.36 54 58 C54.66 58 55.32 58 56 58 C56 54.7 56 51.4 56 48 C56.66 48 57.32 48 58 48 C58 39.42 58 30.84 58 22 C57.34 22 56.68 22 56 22 C56 20.68 56 19.36 56 18 C55.34 18 54.68 18 54 18 C54 17.34 54 16.68 54 16 C52.68 16 51.36 16 50 16 C50 15.34 50 14.68 50 14 C46.04 14 42.08 14 38 14 C38 13.34 38 12.68 38 12 C35.36 12 32.72 12 30 12 C30 11.34 30 10.68 30 10 C28.68 10 27.36 10 26 10 C26 9.34 26 8.68 26 8 C24.68 8 23.36 8 22 8 C22 7.34 22 6.68 22 6 C20.68 6 19.36 6 18 6 C18 5.34 18 4.68 18 4 C16.68 4 15.36 4 14 4 C14 3.34 14 2.68 14 2 C10.04 2 6.08 2 2 2 Z " fill="#181A28" transform="translate(56,8)"/>
<path d="M0 0 C2.64 0 5.28 0 8 0 C8 0.66 8 1.32 8 2 C9.32 2 10.64 2 12 2 C12 2.66 12 3.32 12 4 C13.32 4 14.64 4 16 4 C16 4.66 16 5.32 16 6 C17.32 6 18.64 6 20 6 C20 6.66 20 7.32 20 8 C21.32 8 22.64 8 24 8 C24 8.66 24 9.32 24 10 C26.64 10 29.28 10 32 10 C32 10.66 32 11.32 32 12 C35.96 12 39.92 12 44 12 C44 19.92 44 27.84 44 36 C43.34 36 42.68 36 42 36 C42 38.64 42 41.28 42 44 C41.34 44 40.68 44 40 44 C40 45.32 40 46.64 40 48 C39.34 48 38.68 48 38 48 C38 49.32 38 50.64 38 52 C37.34 52 36.68 52 36 52 C36 53.32 36 54.64 36 56 C35.34 56 34.68 56 34 56 C34 57.32 34 58.64 34 60 C33.34 60 32.68 60 32 60 C32 60.66 32 61.32 32 62 C31.34 62 30.68 62 30 62 C30 62.66 30 63.32 30 64 C29.34 64 28.68 64 28 64 C28 64.66 28 65.32 28 66 C27.34 66 26.68 66 26 66 C26 66.66 26 67.32 26 68 C25.34 68 24.68 68 24 68 C24 68.66 24 69.32 24 70 C23.34 70 22.68 70 22 70 C22 70.66 22 71.32 22 72 C21.34 72 20.68 72 20 72 C20 72.66 20 73.32 20 74 C19.34 74 18.68 74 18 74 C18 74.66 18 75.32 18 76 C17.34 76 16.68 76 16 76 C16 76.66 16 77.32 16 78 C15.34 78 14.68 78 14 78 C14 78.66 14 79.32 14 80 C13.34 80 12.68 80 12 80 C12 80.66 12 81.32 12 82 C11.34 82 10.68 82 10 82 C10 82.66 10 83.32 10 84 C9.34 84 8.68 84 8 84 C8 84.66 8 85.32 8 86 C7.34 86 6.68 86 6 86 C6 86.66 6 87.32 6 88 C4.68 88 3.36 88 2 88 C2 87.34 2 86.68 2 86 C1.34 86 0.68 86 0 86 C0 85.34 0 84.68 0 84 C-0.66 84 -1.32 84 -2 84 C-2 83.34 -2 82.68 -2 82 C-2.66 82 -3.32 82 -4 82 C-4 81.34 -4 80.68 -4 80 C-4.66 80 -5.32 80 -6 80 C-6 79.34 -6 78.68 -6 78 C-6.66 78 -7.32 78 -8 78 C-8 77.34 -8 76.68 -8 76 C-8.66 76 -9.32 76 -10 76 C-10 75.34 -10 74.68 -10 74 C-10.66 74 -11.32 74 -12 74 C-12 73.34 -12 72.68 -12 72 C-12.66 72 -13.32 72 -14 72 C-14 71.34 -14 70.68 -14 70 C-14.66 70 -15.32 70 -16 70 C-16 69.34 -16 68.68 -16 68 C-16.66 68 -17.32 68 -18 68 C-18 67.34 -18 66.68 -18 66 C-18.66 66 -19.32 66 -20 66 C-20 65.34 -20 64.68 -20 64 C-20.66 64 -21.32 64 -22 64 C-22 63.34 -22 62.68 -22 62 C-22.66 62 -23.32 62 -24 62 C-24 61.34 -24 60.68 -24 60 C-24.66 60 -25.32 60 -26 60 C-26 58.68 -26 57.36 -26 56 C-26.66 56 -27.32 56 -28 56 C-28 54.68 -28 53.36 -28 52 C-28.66 52 -29.32 52 -30 52 C-30 50.68 -30 49.36 -30 48 C-30.66 48 -31.32 48 -32 48 C-32 46.68 -32 45.36 -32 44 C-32.66 44 -33.32 44 -34 44 C-34 41.36 -34 38.72 -34 36 C-34.66 36 -35.32 36 -36 36 C-36 28.08 -36 20.16 -36 12 C-32.04 12 -28.08 12 -24 12 C-24 11.34 -24 10.68 -24 10 C-21.36 10 -18.72 10 -16 10 C-16 9.34 -16 8.68 -16 8 C-14.68 8 -13.36 8 -12 8 C-12 7.34 -12 6.68 -12 6 C-10.68 6 -9.36 6 -8 6 C-8 5.34 -8 4.68 -8 4 C-6.68 4 -5.36 4 -4 4 C-4 3.34 -4 2.68 -4 2 C-2.68 2 -1.36 2 0 2 C0 1.34 0 0.68 0 0 Z M2 2 C2 2.66 2 3.32 2 4 C0.68 4 -0.64 4 -2 4 C-2 4.66 -2 5.32 -2 6 C-3.32 6 -4.64 6 -6 6 C-6 6.66 -6 7.32 -6 8 C-7.32 8 -8.64 8 -10 8 C-10 8.66 -10 9.32 -10 10 C-11.32 10 -12.64 10 -14 10 C-14 10.66 -14 11.32 -14 12 C-16.64 12 -19.28 12 -22 12 C-22 12.66 -22 13.32 -22 14 C-25.96 14 -29.92 14 -34 14 C-34 20.6 -34 27.2 -34 34 C-33.34 34 -32.68 34 -32 34 C-32 36.64 -32 39.28 -32 42 C-31.34 42 -30.68 42 -30 42 C-30 43.32 -30 44.64 -30 46 C-29.34 46 -28.68 46 -28 46 C-28 47.32 -28 48.64 -28 50 C-27.34 50 -26.68 50 -26 50 C-26 51.32 -26 52.64 -26 54 C-25.34 54 -24.68 54 -24 54 C-24 55.32 -24 56.64 -24 58 C-23.34 58 -22.68 58 -22 58 C-22 58.66 -22 59.32 -22 60 C-21.34 60 -20.68 60 -20 60 C-20 60.66 -20 61.32 -20 62 C-19.34 62 -18.68 62 -18 62 C-18 62.66 -18 63.32 -18 64 C-17.34 64 -16.68 64 -16 64 C-16 64.66 -16 65.32 -16 66 C-15.34 66 -14.68 66 -14 66 C-14 66.66 -14 67.32 -14 68 C-13.34 68 -12.68 68 -12 68 C-12 68.66 -12 69.32 -12 70 C-11.34 70 -10.68 70 -10 70 C-10 70.66 -10 71.32 -10 72 C-9.34 72 -8.68 72 -8 72 C-8 72.66 -8 73.32 -8 74 C-7.34 74 -6.68 74 -6 74 C-6 74.66 -6 75.32 -6 76 C-5.34 76 -4.68 76 -4 76 C-4 76.66 -4 77.32 -4 78 C-3.34 78 -2.68 78 -2 78 C-2 78.66 -2 79.32 -2 80 C-1.34 80 -0.68 80 0 80 C0 80.66 0 81.32 0 82 C0.66 82 1.32 82 2 82 C2 82.66 2 83.32 2 84 C3.32 84 4.64 84 6 84 C6 83.34 6 82.68 6 82 C6.66 82 7.32 82 8 82 C8 81.34 8 80.68 8 80 C8.66 80 9.32 80 10 80 C10 79.34 10 78.68 10 78 C10.66 78 11.32 78 12 78 C12 77.34 12 76.68 12 76 C12.66 76 13.32 76 14 76 C14 75.34 14 74.68 14 74 C14.66 74 15.32 74 16 74 C16 73.34 16 72.68 16 72 C16.66 72 17.32 72 18 72 C18 71.34 18 70.68 18 70 C18.66 70 19.32 70 20 70 C20 69.34 20 68.68 20 68 C20.66 68 21.32 68 22 68 C22 67.34 22 66.68 22 66 C22.66 66 23.32 66 24 66 C24 65.34 24 64.68 24 64 C24.66 64 25.32 64 26 64 C26 63.34 26 62.68 26 62 C26.66 62 27.32 62 28 62 C28 61.34 28 60.68 28 60 C28.66 60 29.32 60 30 60 C30 59.34 30 58.68 30 58 C30.66 58 31.32 58 32 58 C32 56.68 32 55.36 32 54 C32.66 54 33.32 54 34 54 C34 52.68 34 51.36 34 50 C34.66 50 35.32 50 36 50 C36 48.68 36 47.36 36 46 C36.66 46 37.32 46 38 46 C38 44.68 38 43.36 38 42 C38.66 42 39.32 42 40 42 C40 39.36 40 36.72 40 34 C40.66 34 41.32 34 42 34 C42 27.4 42 20.8 42 14 C38.04 14 34.08 14 30 14 C30 13.34 30 12.68 30 12 C27.36 12 24.72 12 22 12 C22 11.34 22 10.68 22 10 C20.68 10 19.36 10 18 10 C18 9.34 18 8.68 18 8 C16.68 8 15.36 8 14 8 C14 7.34 14 6.68 14 6 C12.68 6 11.36 6 10 6 C10 5.34 10 4.68 10 4 C8.68 4 7.36 4 6 4 C6 3.34 6 2.68 6 2 C4.68 2 3.36 2 2 2 Z " fill="#181A28" transform="translate(60,20)"/>
<path d="M0 0 C0.66 0 1.32 0 2 0 C2 8.58 2 17.16 2 26 C1.34 26 0.68 26 0 26 C0 29.3 0 32.6 0 36 C-0.66 36 -1.32 36 -2 36 C-2 37.32 -2 38.64 -2 40 C-2.66 40 -3.32 40 -4 40 C-4 41.98 -4 43.96 -4 46 C-4.66 46 -5.32 46 -6 46 C-6 46.66 -6 47.32 -6 48 C-6.66 48 -7.32 48 -8 48 C-8 49.32 -8 50.64 -8 52 C-8.66 52 -9.32 52 -10 52 C-10 53.32 -10 54.64 -10 56 C-10.66 56 -11.32 56 -12 56 C-12 56.66 -12 57.32 -12 58 C-12.66 58 -13.32 58 -14 58 C-14 58.66 -14 59.32 -14 60 C-14.66 60 -15.32 60 -16 60 C-16 60.66 -16 61.32 -16 62 C-16.66 62 -17.32 62 -18 62 C-18 62.66 -18 63.32 -18 64 C-18.66 64 -19.32 64 -20 64 C-20 64.66 -20 65.32 -20 66 C-20.66 66 -21.32 66 -22 66 C-22 66.66 -22 67.32 -22 68 C-22.66 68 -23.32 68 -24 68 C-24 68.66 -24 69.32 -24 70 C-24.66 70 -25.32 70 -26 70 C-26 70.66 -26 71.32 -26 72 C-26.66 72 -27.32 72 -28 72 C-28 72.66 -28 73.32 -28 74 C-28.66 74 -29.32 74 -30 74 C-30 74.66 -30 75.32 -30 76 C-30.66 76 -31.32 76 -32 76 C-32 76.66 -32 77.32 -32 78 C-32.66 78 -33.32 78 -34 78 C-34 78.66 -34 79.32 -34 80 C-34.66 80 -35.32 80 -36 80 C-36 80.66 -36 81.32 -36 82 C-36.66 82 -37.32 82 -38 82 C-38 82.66 -38 83.32 -38 84 C-38.66 84 -39.32 84 -40 84 C-40 84.66 -40 85.32 -40 86 C-41.32 86 -42.64 86 -44 86 C-44 86.66 -44 87.32 -44 88 C-46.64 88 -49.28 88 -52 88 C-52 87.34 -52 86.68 -52 86 C-50.02 86 -48.04 86 -46 86 C-46 85.34 -46 84.68 -46 84 C-44.68 84 -43.36 84 -42 84 C-42 83.34 -42 82.68 -42 82 C-41.34 82 -40.68 82 -40 82 C-40 81.34 -40 80.68 -40 80 C-39.34 80 -38.68 80 -38 80 C-38 79.34 -38 78.68 -38 78 C-37.34 78 -36.68 78 -36 78 C-36 77.34 -36 76.68 -36 76 C-35.34 76 -34.68 76 -34 76 C-34 75.34 -34 74.68 -34 74 C-33.34 74 -32.68 74 -32 74 C-32 73.34 -32 72.68 -32 72 C-31.34 72 -30.68 72 -30 72 C-30 71.34 -30 70.68 -30 70 C-29.34 70 -28.68 70 -28 70 C-28 69.34 -28 68.68 -28 68 C-27.34 68 -26.68 68 -26 68 C-26 67.34 -26 66.68 -26 66 C-25.34 66 -24.68 66 -24 66 C-24 65.34 -24 64.68 -24 64 C-23.34 64 -22.68 64 -22 64 C-22 63.34 -22 62.68 -22 62 C-21.34 62 -20.68 62 -20 62 C-20 61.34 -20 60.68 -20 60 C-19.34 60 -18.68 60 -18 60 C-18 59.34 -18 58.68 -18 58 C-17.34 58 -16.68 58 -16 58 C-16 57.34 -16 56.68 -16 56 C-15.34 56 -14.68 56 -14 56 C-14 55.34 -14 54.68 -14 54 C-13.34 54 -12.68 54 -12 54 C-12 52.68 -12 51.36 -12 50 C-11.34 50 -10.68 50 -10 50 C-10 48.68 -10 47.36 -10 46 C-9.34 46 -8.68 46 -8 46 C-8 45.34 -8 44.68 -8 44 C-7.34 44 -6.68 44 -6 44 C-6 42.02 -6 40.04 -6 38 C-5.34 38 -4.68 38 -4 38 C-4 36.68 -4 35.36 -4 34 C-3.34 34 -2.68 34 -2 34 C-2 30.7 -2 27.4 -2 24 C-1.34 24 -0.68 24 0 24 C0 16.08 0 8.16 0 0 Z " fill="#2B539E" transform="translate(114,32)"/>
<path d="M0 0 C2.64 0 5.28 0 8 0 C8 0.66 8 1.32 8 2 C9.32 2 10.64 2 12 2 C12 2.66 12 3.32 12 4 C13.32 4 14.64 4 16 4 C16 4.66 16 5.32 16 6 C17.32 6 18.64 6 20 6 C20 6.66 20 7.32 20 8 C21.32 8 22.64 8 24 8 C24 8.66 24 9.32 24 10 C26.64 10 29.28 10 32 10 C32 10.66 32 11.32 32 12 C35.96 12 39.92 12 44 12 C44 12.66 44 13.32 44 14 C39.38 14 34.76 14 30 14 C30 13.34 30 12.68 30 12 C27.36 12 24.72 12 22 12 C22 11.34 22 10.68 22 10 C20.68 10 19.36 10 18 10 C18 9.34 18 8.68 18 8 C16.68 8 15.36 8 14 8 C14 7.34 14 6.68 14 6 C12.68 6 11.36 6 10 6 C10 5.34 10 4.68 10 4 C8.68 4 7.36 4 6 4 C6 3.34 6 2.68 6 2 C4.68 2 3.36 2 2 2 C2 2.66 2 3.32 2 4 C0.68 4 -0.64 4 -2 4 C-2 4.66 -2 5.32 -2 6 C-3.32 6 -4.64 6 -6 6 C-6 6.66 -6 7.32 -6 8 C-7.32 8 -8.64 8 -10 8 C-10 8.66 -10 9.32 -10 10 C-11.32 10 -12.64 10 -14 10 C-14 10.66 -14 11.32 -14 12 C-16.64 12 -19.28 12 -22 12 C-22 12.66 -22 13.32 -22 14 C-25.96 14 -29.92 14 -34 14 C-34 20.6 -34 27.2 -34 34 C-33.34 34 -32.68 34 -32 34 C-32 37.3 -32 40.6 -32 44 C-32.66 44 -33.32 44 -34 44 C-34 41.36 -34 38.72 -34 36 C-34.66 36 -35.32 36 -36 36 C-36 28.08 -36 20.16 -36 12 C-32.04 12 -28.08 12 -24 12 C-24 11.34 -24 10.68 -24 10 C-21.36 10 -18.72 10 -16 10 C-16 9.34 -16 8.68 -16 8 C-14.68 8 -13.36 8 -12 8 C-12 7.34 -12 6.68 -12 6 C-10.68 6 -9.36 6 -8 6 C-8 5.34 -8 4.68 -8 4 C-6.68 4 -5.36 4 -4 4 C-4 3.34 -4 2.68 -4 2 C-2.68 2 -1.36 2 0 2 C0 1.34 0 0.68 0 0 Z " fill="#2A5098" transform="translate(60,20)"/>
<path d="M0 0 C0.66 0 1.32 0 2 0 C2 7.92 2 15.84 2 24 C1.34 24 0.68 24 0 24 C0 26.64 0 29.28 0 32 C-0.66 32 -1.32 32 -2 32 C-2 33.32 -2 34.64 -2 36 C-2.66 36 -3.32 36 -4 36 C-4 37.32 -4 38.64 -4 40 C-4.66 40 -5.32 40 -6 40 C-6 41.32 -6 42.64 -6 44 C-6.66 44 -7.32 44 -8 44 C-8 45.32 -8 46.64 -8 48 C-8.66 48 -9.32 48 -10 48 C-10 48.66 -10 49.32 -10 50 C-10.66 50 -11.32 50 -12 50 C-12 50.66 -12 51.32 -12 52 C-12.66 52 -13.32 52 -14 52 C-14 52.66 -14 53.32 -14 54 C-14.66 54 -15.32 54 -16 54 C-16 54.66 -16 55.32 -16 56 C-16.66 56 -17.32 56 -18 56 C-18 56.66 -18 57.32 -18 58 C-18.66 58 -19.32 58 -20 58 C-20 58.66 -20 59.32 -20 60 C-20.66 60 -21.32 60 -22 60 C-22 60.66 -22 61.32 -22 62 C-22.66 62 -23.32 62 -24 62 C-24 62.66 -24 63.32 -24 64 C-24.66 64 -25.32 64 -26 64 C-26 64.66 -26 65.32 -26 66 C-26.66 66 -27.32 66 -28 66 C-28 66.66 -28 67.32 -28 68 C-28.66 68 -29.32 68 -30 68 C-30 68.66 -30 69.32 -30 70 C-30.66 70 -31.32 70 -32 70 C-32 70.66 -32 71.32 -32 72 C-32.66 72 -33.32 72 -34 72 C-34 72.66 -34 73.32 -34 74 C-34.66 74 -35.32 74 -36 74 C-36 74.66 -36 75.32 -36 76 C-37.32 76 -38.64 76 -40 76 C-40 75.34 -40 74.68 -40 74 C-39.34 74 -38.68 74 -38 74 C-38 73.34 -38 72.68 -38 72 C-37.34 72 -36.68 72 -36 72 C-36 71.34 -36 70.68 -36 70 C-35.34 70 -34.68 70 -34 70 C-34 69.34 -34 68.68 -34 68 C-33.34 68 -32.68 68 -32 68 C-32 67.34 -32 66.68 -32 66 C-31.34 66 -30.68 66 -30 66 C-30 65.34 -30 64.68 -30 64 C-29.34 64 -28.68 64 -28 64 C-28 63.34 -28 62.68 -28 62 C-27.34 62 -26.68 62 -26 62 C-26 61.34 -26 60.68 -26 60 C-25.34 60 -24.68 60 -24 60 C-24 59.34 -24 58.68 -24 58 C-23.34 58 -22.68 58 -22 58 C-22 57.34 -22 56.68 -22 56 C-21.34 56 -20.68 56 -20 56 C-20 55.34 -20 54.68 -20 54 C-19.34 54 -18.68 54 -18 54 C-18 53.34 -18 52.68 -18 52 C-17.34 52 -16.68 52 -16 52 C-16 51.34 -16 50.68 -16 50 C-15.34 50 -14.68 50 -14 50 C-14 49.34 -14 48.68 -14 48 C-13.34 48 -12.68 48 -12 48 C-12 47.34 -12 46.68 -12 46 C-11.34 46 -10.68 46 -10 46 C-10 44.68 -10 43.36 -10 42 C-9.34 42 -8.68 42 -8 42 C-8 40.68 -8 39.36 -8 38 C-7.34 38 -6.68 38 -6 38 C-6 36.68 -6 35.36 -6 34 C-5.34 34 -4.68 34 -4 34 C-4 32.68 -4 31.36 -4 30 C-3.34 30 -2.68 30 -2 30 C-2 27.36 -2 24.72 -2 22 C-1.34 22 -0.68 22 0 22 C0 14.74 0 7.48 0 0 Z " fill="#CDE1FF" transform="translate(104,34)"/>
<path d="M0 0 C3.96 0 7.92 0 12 0 C12 0.66 12 1.32 12 2 C8.7 2 5.4 2 2 2 C2 2.66 2 3.32 2 4 C0.68 4 -0.64 4 -2 4 C-2 4.66 -2 5.32 -2 6 C-3.32 6 -4.64 6 -6 6 C-6 6.66 -6 7.32 -6 8 C-7.32 8 -8.64 8 -10 8 C-10 8.66 -10 9.32 -10 10 C-11.32 10 -12.64 10 -14 10 C-14 10.66 -14 11.32 -14 12 C-16.64 12 -19.28 12 -22 12 C-22 12.66 -22 13.32 -22 14 C-25.96 14 -29.92 14 -34 14 C-34 14.66 -34 15.32 -34 16 C-35.32 16 -36.64 16 -38 16 C-38 16.66 -38 17.32 -38 18 C-38.66 18 -39.32 18 -40 18 C-40 19.32 -40 20.64 -40 22 C-40.66 22 -41.32 22 -42 22 C-42 29.92 -42 37.84 -42 46 C-42.66 46 -43.32 46 -44 46 C-44 37.42 -44 28.84 -44 20 C-43.34 20 -42.68 20 -42 20 C-42 18.68 -42 17.36 -42 16 C-41.34 16 -40.68 16 -40 16 C-40 15.34 -40 14.68 -40 14 C-38.68 14 -37.36 14 -36 14 C-36 13.34 -36 12.68 -36 12 C-32.04 12 -28.08 12 -24 12 C-24 11.34 -24 10.68 -24 10 C-21.36 10 -18.72 10 -16 10 C-16 9.34 -16 8.68 -16 8 C-14.68 8 -13.36 8 -12 8 C-12 7.34 -12 6.68 -12 6 C-10.68 6 -9.36 6 -8 6 C-8 5.34 -8 4.68 -8 4 C-6.68 4 -5.36 4 -4 4 C-4 3.34 -4 2.68 -4 2 C-2.68 2 -1.36 2 0 2 C0 1.34 0 0.68 0 0 Z " fill="#CDE1FF" transform="translate(58,10)"/>
<path d="M0 0 C1.98 0 3.96 0 6 0 C6 0.66 6 1.32 6 2 C7.32 2 8.64 2 10 2 C10 2.66 10 3.32 10 4 C11.32 4 12.64 4 14 4 C14 4.66 14 5.32 14 6 C15.32 6 16.64 6 18 6 C18 6.66 18 7.32 18 8 C20.64 8 23.28 8 26 8 C26 8.66 26 9.32 26 10 C29.96 10 33.92 10 38 10 C38 10.66 38 11.32 38 12 C33.38 12 28.76 12 24 12 C24 11.34 24 10.68 24 10 C21.36 10 18.72 10 16 10 C16 9.34 16 8.68 16 8 C14.68 8 13.36 8 12 8 C12 7.34 12 6.68 12 6 C10.68 6 9.36 6 8 6 C8 5.34 8 4.68 8 4 C6.68 4 5.36 4 4 4 C4 3.34 4 2.68 4 2 C2.68 2 1.36 2 0 2 C0 1.34 0 0.68 0 0 Z " fill="#223A6B" transform="translate(66,22)"/>
<path d="M0 0 C0.66 0 1.32 0 2 0 C2 1.32 2 2.64 2 4 C2.66 4 3.32 4 4 4 C4 5.32 4 6.64 4 8 C4.66 8 5.32 8 6 8 C6 9.98 6 11.96 6 14 C5.34 14 4.68 14 4 14 C4 12.68 4 11.36 4 10 C3.34 10 2.68 10 2 10 C2 8.68 2 7.36 2 6 C1.34 6 0.68 6 0 6 C0 4.02 0 2.04 0 0 Z " fill="#1E2D4E" transform="translate(28,62)"/>
<path d="M0 0 C1.98 0 3.96 0 6 0 C6 0.66 6 1.32 6 2 C6.66 2 7.32 2 8 2 C8 2.66 8 3.32 8 4 C6.68 4 5.36 4 4 4 C4 3.34 4 2.68 4 2 C2.68 2 1.36 2 0 2 C0 1.34 0 0.68 0 0 Z " fill="#233C6E" transform="translate(86,30)"/>
<path d="M0 0 C1.98 0 3.96 0 6 0 C6 0.66 6 1.32 6 2 C6.66 2 7.32 2 8 2 C8 2.66 8 3.32 8 4 C6.68 4 5.36 4 4 4 C4 3.34 4 2.68 4 2 C2.68 2 1.36 2 0 2 C0 1.34 0 0.68 0 0 Z " fill="#1B253E" transform="translate(78,28)"/>
</svg>
